<svg xmlns="http://www.w3.org/2000/svg" xmlns:xlink="http://www.w3.org/1999/xlink" width="360" zoomAndPan="magnify" viewBox="0 0 270 135.000003" height="180" preserveAspectRatio="xMidYMid meet" version="1.0"><defs><g/></defs><path fill="#6aa84f" d="M 171.675781 71.542969 C 174.175781 67.214844 172.691406 61.675781 168.363281 59.175781 C 164.03125 56.675781 158.496094 58.160156 155.996094 62.492188 C 155.5 63.347656 155.160156 64.253906 154.96875 65.175781 L 143.117188 65.175781 C 142.71875 63.289062 141.722656 61.535156 140.210938 60.214844 L 146.132812 49.960938 C 150.148438 51.335938 154.699219 49.730469 156.898438 45.917969 C 159.398438 41.585938 157.917969 36.050781 153.585938 33.550781 C 151.136719 32.136719 148.300781 31.996094 145.847656 32.925781 L 139.996094 22.789062 C 140.828125 22.113281 141.554688 21.277344 142.125 20.292969 C 144.625 15.960938 143.140625 10.425781 138.8125 7.925781 C 134.480469 5.425781 128.941406 6.90625 126.441406 11.238281 C 123.945312 15.566406 125.425781 21.105469 129.757812 23.605469 C 132.011719 24.90625 134.589844 25.128906 136.898438 24.429688 L 142.875 34.777344 C 142.238281 35.371094 141.675781 36.070312 141.21875 36.863281 C 140.691406 37.777344 140.34375 38.746094 140.160156 39.726562 L 128.375 39.726562 C 127.898438 37.226562 126.382812 34.9375 124.003906 33.566406 C 119.675781 31.066406 114.136719 32.550781 111.636719 36.878906 C 109.4375 40.691406 110.324219 45.4375 113.519531 48.226562 L 107.597656 58.484375 C 103.585938 57.109375 99.035156 58.710938 96.832031 62.523438 C 94.335938 66.855469 95.816406 72.390625 100.148438 74.890625 C 104.476562 77.390625 110.011719 75.90625 112.515625 71.578125 C 114.714844 67.765625 113.828125 63.019531 110.632812 60.234375 L 116.554688 49.976562 C 118.503906 50.644531 120.582031 50.609375 122.457031 49.957031 L 128.351562 60.167969 C 127.597656 60.8125 126.9375 61.597656 126.414062 62.507812 C 123.914062 66.835938 125.398438 72.375 129.726562 74.875 C 134.058594 77.375 139.59375 75.890625 142.09375 71.5625 C 142.625 70.640625 142.976562 69.664062 143.160156 68.675781 L 154.9375 68.675781 C 155.40625 71.183594 156.925781 73.480469 159.308594 74.855469 C 163.640625 77.355469 169.175781 75.875 171.675781 71.542969 Z M 140.195312 43.226562 C 140.589844 45.121094 141.585938 46.886719 143.101562 48.207031 L 137.179688 58.464844 C 135.273438 57.8125 133.242188 57.832031 131.398438 58.445312 L 125.480469 48.1875 C 126.191406 47.558594 126.816406 46.804688 127.320312 45.933594 C 127.820312 45.066406 128.160156 44.152344 128.347656 43.226562 Z M 140.195312 43.226562 " fill-opacity="1" fill-rule="nonzero"/><g fill="#1c1d33" fill-opacity="1"><g transform="translate(168.058547, 114.810129)"><g><path d="M 12 0 L 12 -17.996094 L 18.414062 -17.996094 L 18.414062 -22.773438 L 0.238281 -22.773438 L 0.238281 -17.996094 L 6.65625 -17.996094 L 6.65625 0 Z M 12 0 "/></g></g></g><g fill="#1c1d33" fill-opacity="1"><g transform="translate(188.204523, 114.810129)"><g><path d="M 17.339844 0 L 17.339844 -4.777344 L 7.132812 -4.777344 L 7.132812 -9.015625 L 16.355469 -9.015625 L 16.355469 -13.757812 L 7.132812 -13.757812 L 7.132812 -17.996094 L 17.339844 -17.996094 L 17.339844 -22.773438 L 1.789062 -22.773438 L 1.789062 0 Z M 17.339844 0 "/></g></g></g><g fill="#1c1d33" fill-opacity="1"><g transform="translate(208.320658, 114.810129)"><g><path d="M 12.328125 0.507812 C 18.324219 0.507812 21.816406 -2.804688 22.414062 -7.730469 L 16.566406 -7.730469 C 16.207031 -5.34375 14.476562 -4.269531 12.207031 -4.269531 C 8.597656 -4.269531 6.597656 -7.074219 6.597656 -11.402344 C 6.597656 -15.699219 8.597656 -18.476562 12.207031 -18.476562 C 14.476562 -18.476562 16.238281 -17.402344 16.566406 -15.074219 L 22.414062 -15.074219 C 21.816406 -19.96875 18.324219 -23.25 12.328125 -23.25 C 4.535156 -23.25 0.957031 -17.757812 0.957031 -11.402344 C 0.957031 -5.042969 4.535156 0.507812 12.328125 0.507812 Z M 12.328125 0.507812 "/></g></g></g><g fill="#1c1d33" fill-opacity="1"><g transform="translate(233.062853, 114.810129)"><g><path d="M 7.132812 0 L 7.132812 -8.984375 L 15.789062 -8.984375 L 15.789062 0 L 21.132812 0 L 21.132812 -22.773438 L 15.789062 -22.773438 L 15.789062 -13.757812 L 7.132812 -13.757812 L 7.132812 -22.773438 L 1.789062 -22.773438 L 1.789062 0 Z M 7.132812 0 "/></g></g></g><g fill="#1c1d33" fill-opacity="1"><g transform="translate(13.944712, 114.810129)"><g><path d="M 13.132812 -10.296875 C 15.847656 -11.132812 17.460938 -13.253906 17.460938 -16.355469 C 17.460938 -20.59375 14.625 -22.773438 10.238281 -22.773438 L 2.359375 -22.773438 L 2.359375 0 L 4.417969 0 L 4.417969 -9.910156 L 10.238281 -9.910156 C 10.535156 -9.910156 10.835938 -9.910156 11.101562 -9.9375 L 15.402344 0 L 17.667969 0 Z M 4.417969 -11.699219 L 4.417969 -20.921875 L 9.96875 -20.921875 C 13.429688 -20.921875 15.429688 -19.222656 15.429688 -16.296875 C 15.429688 -13.339844 13.492188 -11.699219 9.96875 -11.699219 Z M 4.417969 -11.699219 "/></g></g></g><g fill="#1c1d33" fill-opacity="1"><g transform="translate(35.105522, 114.810129)"><g><path d="M 16.863281 0 L 16.863281 -1.851562 L 4.417969 -1.851562 L 4.417969 -10.507812 L 15.339844 -10.507812 L 15.339844 -12.355469 L 4.417969 -12.355469 L 4.417969 -20.921875 L 16.863281 -20.921875 L 16.863281 -22.773438 L 2.359375 -22.773438 L 2.359375 0 Z M 16.863281 0 "/></g></g></g><g fill="#1c1d33" fill-opacity="1"><g transform="translate(55.370956, 114.810129)"><g><path d="M 11.789062 0.296875 C 16.65625 0.296875 19.878906 -2.359375 20.625 -6.445312 L 18.445312 -6.445312 C 17.820312 -3.3125 15.28125 -1.550781 11.730469 -1.550781 C 6.269531 -1.550781 3.550781 -5.820312 3.550781 -11.402344 C 3.550781 -16.953125 6.269531 -21.222656 11.730469 -21.222656 C 15.28125 -21.222656 17.847656 -19.460938 18.445312 -16.746094 L 20.625 -16.746094 C 19.90625 -20.445312 16.65625 -23.070312 11.789062 -23.070312 C 4.746094 -23.070312 1.492188 -17.578125 1.492188 -11.402344 C 1.492188 -5.222656 4.746094 0.296875 11.789062 0.296875 Z M 11.789062 0.296875 "/></g></g></g><g fill="#1c1d33" fill-opacity="1"><g transform="translate(79.33725, 114.810129)"><g><path d="M 13.132812 -10.296875 C 15.847656 -11.132812 17.460938 -13.253906 17.460938 -16.355469 C 17.460938 -20.59375 14.625 -22.773438 10.238281 -22.773438 L 2.359375 -22.773438 L 2.359375 0 L 4.417969 0 L 4.417969 -9.910156 L 10.238281 -9.910156 C 10.535156 -9.910156 10.835938 -9.910156 11.101562 -9.9375 L 15.402344 0 L 17.667969 0 Z M 4.417969 -11.699219 L 4.417969 -20.921875 L 9.96875 -20.921875 C 13.429688 -20.921875 15.429688 -19.222656 15.429688 -16.296875 C 15.429688 -13.339844 13.492188 -11.699219 9.96875 -11.699219 Z M 4.417969 -11.699219 "/></g></g></g><g fill="#1c1d33" fill-opacity="1"><g transform="translate(100.498057, 114.810129)"><g><path d="M 10.265625 0.296875 C 15.847656 0.296875 18.386719 -2.867188 18.386719 -8.058594 L 18.386719 -22.773438 L 16.328125 -22.773438 L 16.328125 -8.058594 C 16.328125 -4 14.535156 -1.550781 10.265625 -1.550781 C 6 -1.550781 4.207031 -4 4.207031 -8.058594 L 4.207031 -22.773438 L 2.148438 -22.773438 L 2.148438 -8.058594 C 2.148438 -2.867188 4.6875 0.296875 10.265625 0.296875 Z M 10.265625 0.296875 "/></g></g></g><g fill="#1c1d33" fill-opacity="1"><g transform="translate(123.151141, 114.810129)"><g><path d="M 10.476562 0 L 10.476562 -20.921875 L 18.503906 -20.921875 L 18.503906 -22.773438 L 0.417969 -22.773438 L 0.417969 -20.921875 L 8.417969 -20.921875 L 8.417969 0 Z M 10.476562 0 "/></g></g></g><g fill="#1c1d33" fill-opacity="1"><g transform="translate(144.162716, 114.810129)"><g><path d="M 2.597656 0 L 4.894531 -6.148438 L 15.640625 -6.148438 L 17.9375 0 L 20.058594 0 L 11.460938 -22.773438 L 9.074219 -22.773438 L 0.476562 0 Z M 10.265625 -20.652344 L 14.984375 -8 L 5.550781 -8 Z M 10.265625 -20.652344 "/></g></g></g></svg>